# xmcd
#
# Track frame offsets: 
#        150
#        32678
#        50641
#        71167
#        111686
#        135311
#        168981
#        218648
#        250740
#        290233
#
# Disc length: 4360 seconds
#
# Revision: 0
# Processed by: cddbd v1.5.2PL0 Copyright (c) Steve Scherf et al.
# Submitted via: ExactAudioCopy v0.95b4
#
DISCID=9c11060a
DTITLE=Eric Clapton - 2001-03-21 - Bercy 2001 CD2
DYEAR=2001
DGENRE=Blues
TTITLE0=Don't Let Me be Lonely Tonight
TTITLE1=Travellin' Light
TTITLE2=Hoochie Coochie Man
TTITLE3=Have You Ever Loved A Woman
TTITLE4=Cocaine
TTITLE5=Wonderful Tonight
TTITLE6=Layla
TTITLE7=Sunshine Of Your Love
TTITLE8=Somewhere Over The Rainbow
TTITLE9=Stormy Monday
EXTD=
EXTT0=
EXTT1=
EXTT2=
EXTT3=
EXTT4=
EXTT5=
EXTT6=
EXTT7=
EXTT8=
EXTT9=
PLAYORDER=
